<svg xmlns="http://www.w3.org/2000/svg" preserveAspectRatio="xMidYMid" version="1.0" viewBox="0 0 320 320">
  <circle cx="160" cy="160" r="153.06599" style="fill:#000;fill-opacity:1;stroke-width:1.06583;stroke-linecap:round;stroke-linejoin:round"/>
  <path fill="#fff" d="m267.24218 68.6433-51.9596-20.34677-3.31411-1.29603-3.33268 1.29603-48.65435 19.03266-48.65371-19.03266-3.29628-1.29603-3.30532 1.29603-51.9685 20.34676-5.75713 2.25677v178.20893l5.75712 2.24788 51.96851 20.34637 3.30532 1.29626 3.3054-1.29626L160 252.67089l48.65436 19.03235 3.31411 1.29626 3.31411-1.29626 51.9596-20.34637 5.75732-2.24788V70.90006Zm-55.27371-11.9271 51.96847 20.35589v73.52958l-51.96847-20.3383zm-48.66323 102.30474 48.66323-19.03234 48.66324 19.03234 2.47872.97018-2.47872.96938-48.66324 19.03315-48.66323-19.03315-2.47873-.96938zM108.03145 56.7162 160 77.07209v73.52958l-51.96855-20.34717ZM59.37742 159.02094l48.65403-19.03234 48.66332 19.03234 2.47872.97018-2.47872.96938-48.66332 19.03315-48.65403-19.03315-2.47905-.96938zm-3.29628 83.89809v-73.5659l51.96855 20.33749v73.53846zm103.93662 0v-73.5659l51.96928 20.33749v73.53846z" style="stroke-width:.999997"/>
</svg>
